<svg xmlns="http://www.w3.org/2000/svg" xmlns:xlink="http://www.w3.org/1999/xlink" width="16" height="16" version="1.1" viewBox="0 0 16 16"><title>96337282-CF61-409B-AF1D-EF5F3D300CF8</title><desc>Created with sketchtool.</desc><g id="Designs" fill="none" fill-rule="evenodd" stroke="none" stroke-width="1"><g id="HS-CONNECTION-STATUS" fill="#FFEF02" fill-rule="nonzero" transform="translate(-146.000000, -244.000000)"><g id="Combined-Shape-2" transform="translate(146.000000, 244.000000)"><path id="Combined-Shape" d="M3.8284349,4.24255219 L11.585,12 L3,12 C1.40231912,12 0.0963391206,10.75108 0.00509269341,9.17627279 L0,9 C0,7.34314575 1.34314575,6 3,6 C3.03362123,6 3.06711328,6.00055307 3.10046756,6.00165061 C3.22886979,5.36334414 3.48031617,4.76814122 3.8284349,4.24255219 Z M8,2 C10.7614237,2 13,4.23857625 13,7 C13,7.01682154 12.9999169,7.03362368 12.9997512,7.05040602 C13.1612552,7.01724601 13.3286136,7 13.5,7 C14.8807119,7 16,8.11928813 16,9.5 C16,10.605301 15.2827065,11.5430691 14.2882192,11.8732046 L5.24255219,2.8284349 C6.03299682,2.30489166 6.98089278,2 8,2 Z M2.70710678,2.29289322 L12.7071068,12.2928932 L11.2928932,13.7071068 L1.29289322,3.70710678 L2.70710678,2.29289322 Z"/></g></g></g></svg>